<svg width="24" height="24" viewBox="0 0 24 24" xmlns="http://www.w3.org/2000/svg">
  <g>
    <circle cx="12" cy="12" r="12" fill="white"/>
    <path d="M21.805 12.23c0-.638-.057-1.252-.163-1.84H12v3.481h5.509a4.71 4.71 0 0 1-2.044 3.09v2.56h3.304c1.93-1.78 3.036-4.4 3.036-7.291z" fill="#4285F4"/>
    <path d="M12 22c2.7 0 4.963-.89 6.617-2.41l-3.304-2.56c-.917.62-2.086.99-3.313.99-2.548 0-4.71-1.72-5.482-4.03H3.09v2.53A9.997 9.997 0 0 0 12 22z" fill="#34A853"/>
    <path d="M6.518 13.99A5.996 5.996 0 0 1 6.09 12c0-.69.12-1.36.33-1.99V7.48H3.09A9.997 9.997 0 0 0 2 12c0 1.64.39 3.19 1.09 4.52l3.428-2.53z" fill="#FBBC05"/>
    <path d="M12 6.98c1.47 0 2.78.51 3.81 1.51l2.85-2.85C16.963 3.89 14.7 3 12 3A9.997 9.997 0 0 0 3.09 7.48l3.428 2.53C7.29 8.7 9.452 6.98 12 6.98z" fill="#EA4335"/>
  </g>
</svg>